<svg xmlns="http://www.w3.org/2000/svg" width="24" height="24" viewBox="0 0 24 24" fill="#ffcc00">
  <path d="M22 4.56c-.81.36-1.68.6-2.6.71a4.68 4.68 0 0 0 2.06-2.58c-.91.54-1.93.92-3.02 1.13a4.66 4.66 0 0 0-7.95 4.24 13.2 13.2 0 0 1-9.58-4.85 4.62 4.62 0 0 0-.63 2.33 4.66 4.66 0 0 0 2.07 3.86 4.68 4.68 0 0 1-2.1-.58v.06a4.66 4.66 0 0 0 3.73 4.57 4.7 4.7 0 0 1-2.09.08 4.66 4.66 0 0 0 4.35 3.24 9.36 9.36 0 0 1-5.78 1.99A9.49 9.49 0 0 1 2 18.6a13.24 13.24 0 0 0 7.15 2.09c8.6 0 13.42-7.12 13.42-13.32 0-.2 0-.39-.02-.59a9.49 9.49 0 0 0 2.34-2.42z"/>
</svg>